<?xml version="1.0" encoding="UTF-8" standalone="no"?>
<svg
   xmlns:dc="http://purl.org/dc/elements/1.1/"
   xmlns:cc="http://creativecommons.org/ns#"
   xmlns:rdf="http://www.w3.org/1999/02/22-rdf-syntax-ns#"
   xmlns:svg="http://www.w3.org/2000/svg"
   xmlns="http://www.w3.org/2000/svg"
   version="1.1"
   id="svg4818"
   viewBox="0 0 300 185"
   height="185"
   width="300">
  <defs
     id="defs4820" />
  <g
     id="g4140">
    <rect
       y="1.5820312e-06"
       x="0"
       height="185"
       width="300"
       id="rect5366"
       style="opacity:1;fill:#6cc644;fill-opacity:1;stroke:none;stroke-width:10;stroke-linecap:butt;stroke-miterlimit:4;stroke-dasharray:none;stroke-dashoffset:0;stroke-opacity:1" />
    <rect
       transform="matrix(0.8660254,0.5,-0.8660254,0.5,0,0)"
       ry="10.176592"
       rx="14.688646"
       y="-6.4393296"
       x="176.13141"
       height="55.96841"
       width="79.79425"
       id="rect5467"
       style="opacity:1;fill:#4d4d4d;fill-opacity:1;stroke:none;stroke-width:10;stroke-linecap:butt;stroke-miterlimit:4;stroke-dasharray:none;stroke-dashoffset:0;stroke-opacity:1" />
    <g
       transform="matrix(0.67930608,0.39219755,0,0.7794992,304.17023,109.34544)"
       id="g4157">
      <rect
         style="opacity:1;fill:#ffffff;fill-opacity:1;stroke:none;stroke-width:10;stroke-linecap:butt;stroke-miterlimit:4;stroke-dasharray:none;stroke-dashoffset:0;stroke-opacity:1"
         id="rect4155"
         width="85.359116"
         height="81.215469"
         x="-277.05606"
         y="57.592739" />
      <g
         style="font-style:normal;font-weight:normal;font-size:40px;line-height:125%;font-family:sans-serif;letter-spacing:0px;word-spacing:0px;fill:#333333;fill-opacity:1;stroke:none;stroke-width:1px;stroke-linecap:butt;stroke-linejoin:miter;stroke-opacity:1"
         id="text4143"
         transform="matrix(3.1512431,0,0,3.1512431,359.26103,-29.751936)">
        <path
           d="m -193.94005,47.389503 q 0.0893,-0.133928 -0.067,-0.290178 -0.2009,-0.15625 -0.3125,-0.04464 -0.0893,0.133929 0.067,0.290179 0.20089,0.15625 0.3125,0.04464 z m -0.625,-0.915178 q -0.11161,-0.15625 -0.26786,-0.08929 -0.13393,0.08929 0,0.267857 0.15625,0.178572 0.26786,0.111607 0.13393,-0.08928 0,-0.290178 z m -0.91518,-0.892857 q 0.0446,-0.08929 -0.11161,-0.178572 -0.15625,-0.04464 -0.17857,0.04464 -0.067,0.111607 0.0893,0.178572 0.17857,0.04464 0.20089,-0.04464 z m 0.46875,0.513393 q 0.0446,-0.02232 0.0223,-0.08929 0,-0.08929 -0.067,-0.133929 -0.13393,-0.15625 -0.22322,-0.06696 -0.0893,0.08929 0.0223,0.245536 0.13392,0.133928 0.24553,0.04464 z m 1.91964,1.674107 q 0.0446,-0.15625 -0.20089,-0.245536 -0.20089,-0.06696 -0.29018,0.08929 -0.0446,0.15625 0.2009,0.245535 0.20089,0.06697 0.29017,-0.08928 z m 0.69197,0.245535 q 0.24553,0 0.24553,-0.178571 0,-0.178571 -0.26785,-0.178571 -0.22322,0 -0.22322,0.178571 0,0.178571 0.24554,0.178571 z m 1.11607,-0.334821 q -0.0446,-0.15625 -0.29018,-0.111607 -0.24553,0.04464 -0.20089,0.200893 0.0446,0.178571 0.26786,0.133928 0.22321,-0.04464 0.22321,-0.223214 z m 14.33036,-7.075893 q 0,-4.732143 -3.34822,-8.080357 -3.34821,-3.348214 -8.08035,-3.348214 -4.73215,0 -8.08036,3.348214 -3.34822,3.348214 -3.34822,8.080357 0,3.727679 2.1875,6.71875 2.1875,2.96875 5.625,4.129464 0.40179,0.06697 0.58036,-0.111607 0.20089,-0.178571 0.20089,-0.446428 0,-1.160715 -0.0223,-2.120536 -0.13393,0.02232 -0.35714,0.06696 -0.20089,0.02232 -0.78125,0.04464 -0.58036,0 -1.07143,-0.08929 -0.49107,-0.111607 -0.98214,-0.446428 -0.46875,-0.357143 -0.64732,-0.9375 -0.5134,-1.316964 -1.27232,-1.651786 -0.0446,-0.02232 -0.11161,-0.06696 -0.0446,-0.06696 -0.17857,-0.178572 -0.11161,-0.133928 -0.15625,-0.223214 -0.0223,-0.08929 0.0893,-0.15625 0.13393,-0.08929 0.44643,-0.08929 0.13393,0 0.33482,0.04464 0.2009,0.04464 0.66965,0.357143 0.46875,0.290179 0.7366,0.78125 0.35715,0.625 0.8259,0.9375 0.49107,0.3125 0.98214,0.3125 0.49107,0 0.84821,-0.06696 0.35715,-0.08929 0.66965,-0.223214 0.15625,-1.049108 0.7366,-1.540179 -1.09375,-0.133929 -1.91964,-0.401786 -0.82589,-0.290178 -1.62946,-0.870535 -0.80358,-0.602679 -1.25,-1.696429 -0.42411,-1.116071 -0.42411,-2.678571 0,-1.763393 1.18303,-3.058036 -0.53571,-1.383929 0.11161,-3.035714 0.42411,-0.133929 1.20536,0.178571 0.80357,0.290179 1.36161,0.647321 l 0.58035,0.357143 q 1.29465,-0.379464 2.85715,-0.379464 1.5625,0 2.85714,0.379464 0.24553,-0.15625 0.625,-0.401785 0.40178,-0.245536 1.25,-0.580358 0.84821,-0.334821 1.27232,-0.200892 0.64732,1.651785 0.11161,3.035714 1.18303,1.294643 1.18303,3.058036 0,1.272321 -0.3125,2.254464 -0.3125,0.959821 -0.80357,1.5625 -0.46875,0.580357 -1.18303,0.982143 -0.71429,0.401785 -1.40625,0.580357 -0.66965,0.178571 -1.51786,0.267857 0.78125,0.691964 0.78125,2.120536 0,0.892857 -0.0223,1.986607 0,1.09375 0,1.138393 0,0.267857 0.17857,0.446428 0.20089,0.178572 0.60268,0.111607 3.4375,-1.160714 5.625,-4.129464 2.1875,-2.991071 2.1875,-6.71875 z m 5.71428,-10.714286 0,21.428572 q 0,2.65625 -1.89732,4.53125 -1.875,1.897321 -4.53125,1.897321 l -21.42857,0 q -2.65625,0 -4.55357,-1.897321 -1.875,-1.875 -1.875,-4.53125 l 0,-21.428572 q 0,-2.65625 1.875,-4.53125 1.89732,-1.897321 4.55357,-1.897321 l 21.42857,0 q 2.65625,0 4.53125,1.897321 1.89732,1.875 1.89732,4.53125 z"
           id="path4148"
           style="fill:#333333;fill-opacity:1" />
      </g>
    </g>
  </g>
  <metadata
     id="metadata4179">
    <rdf:RDF>
      <cc:Work
         rdf:about="">
        <dc:title></dc:title>
      </cc:Work>
    </rdf:RDF>
  </metadata>
</svg>
