<svg xmlns="http://www.w3.org/2000/svg" width="29.875" height="30.306"><g transform="translate(51.979 -24.912)"><rect transform="scale(1.22474 .7071) rotate(45)" ry="2.693" rx="3.886" y="60.047" x="15.258" height="14.808" width="21.112" fill="#4d4d4d"/><path fill="#fff" d="M-49.94 27.263l15.342 8.858v16.75l-15.342-8.858z"/><path d="M-45.417 42.66q.05-.058-.038-.211-.114-.167-.177-.131-.05.058.038.21.113.167.177.131zm-.354-.8q-.064-.138-.152-.145-.076.014 0 .174.088.167.152.16.076-.014 0-.189zm-.519-.88q.026-.043-.063-.152-.088-.08-.101-.03-.038.051.05.146.102.087.114.037zm.266.488q.025 0 .012-.051 0-.058-.037-.11-.076-.144-.127-.116-.05.03.013.167.076.131.139.11zm1.087 1.715q.025-.087-.114-.225-.113-.11-.164-.037-.025.087.114.226.114.109.164.036zm.392.386q.14.08.14-.036 0-.116-.153-.203-.126-.073-.126.043 0 .116.139.196zm.632.148q-.025-.117-.164-.168-.14-.051-.114.065.025.13.152.175.126.044.126-.072zm8.117.087q0-3.076-1.897-6.347-1.896-3.27-4.576-4.818-2.68-1.547-4.577-.466-1.896 1.081-1.896 4.157 0 2.422 1.239 5.082 1.239 2.644 3.186 4.523.227.175.328.117.114-.05.114-.224 0-.755-.013-1.386-.075-.03-.202-.073-.114-.051-.442-.227-.329-.19-.607-.408-.278-.233-.556-.611-.266-.386-.367-.821-.29-1.024-.72-1.49-.026-.029-.064-.08-.025-.058-.101-.174-.063-.124-.089-.197-.012-.065.051-.072.076-.014.253.088.076.044.19.139.113.094.379.45.265.343.417.75.202.522.468.879.278.363.556.524.278.16.48.234.203.059.38.074.088-.631.417-.76-.62-.445-1.087-.89-.468-.458-.923-1.098-.455-.654-.708-1.511-.24-.864-.24-1.88 0-1.146.67-1.6-.304-1.075.063-1.937.24.052.683.51.455.452.77.866l.33.422q.733.177 1.618.688.885.51 1.618 1.18.139-.02.354-.056.227-.028.708.032.48.06.72.285.367 1.285.064 2.01.67 1.228.67 2.374 0 .827-.177 1.363-.177.522-.455.753-.266.224-.67.251-.405.028-.797-.083-.38-.102-.86-.322.443.705.443 1.634 0 .58-.013 1.284v.74q0 .174.101.348.114.182.342.27 1.947.37 3.186-.845 1.239-1.228 1.239-3.651zm3.236-5.095v13.927q0 1.726-1.075 2.324-1.062.62-2.566-.248l-12.137-7.007q-1.504-.869-2.579-2.722-1.062-1.832-1.062-3.559V27.498q0-1.727 1.062-2.332 1.075-.613 2.58.256l12.136 7.007q1.504.868 2.566 2.715 1.075 1.839 1.075 3.565z" fill="#333"/></g></svg>