<svg xmlns="http://www.w3.org/2000/svg" width="29.873" height="30.307"><g transform="translate(-90.14 -114.87)"><rect width="21.112" height="14.808" x="187.268" y="67.953" rx="3.886" ry="2.693" transform="matrix(.86602 .5 -.86602 .5 0 0)" fill="#4d4d4d"/><path fill="#fff" d="M91.382 116.291l16.935 9.778v18.655l-16.935-9.778z"/><path d="M93.137 133.664l2.92 1.686v-10.068l-2.92-1.686zm3.11-11.377q-.013-.762-.456-1.51-.442-.749-1.175-1.172-.734-.424-1.201-.2-.455.23-.455.984 0 .74.442 1.503.455.756 1.176 1.172l.012.008q.746.43 1.201.2.456-.245.456-.985zm7.395 17.442l2.92 1.687v-5.774q0-2.234-.922-3.913-.923-1.68-2.44-2.555-1.72-.993-2.642.172l.025.014v-1.465l-2.92-1.686q.037.98 0 10.068l2.92 1.686v-5.629q0-.55.088-.761.19-.398.57-.527.379-.144.935.177 1.466.847 1.466 3.124zm5.917-11.062v13.927q0 1.727-1.075 2.325-1.062.62-2.566-.249l-12.137-7.007q-1.504-.869-2.579-2.722-1.062-1.832-1.062-3.558v-13.927q0-1.726 1.062-2.332 1.075-.613 2.58.256l12.136 7.007q1.504.869 2.566 2.715 1.075 1.839 1.075 3.565z" fill="#00a0dc"/></g></svg>