<?xml version="1.0" encoding="UTF-8" standalone="no"?>
<svg
   xmlns:dc="http://purl.org/dc/elements/1.1/"
   xmlns:cc="http://creativecommons.org/ns#"
   xmlns:rdf="http://www.w3.org/1999/02/22-rdf-syntax-ns#"
   xmlns:svg="http://www.w3.org/2000/svg"
   xmlns="http://www.w3.org/2000/svg"
   width="300"
   height="185"
   viewBox="0 0 300 185"
   id="svg4818"
   version="1.1">
  <defs
     id="defs4820" />
  <g
     id="layer1"
     transform="translate(0,-867.36212)">
    <rect
       style="opacity:1;fill:#0077b5;fill-opacity:1;stroke:none;stroke-width:10;stroke-linecap:butt;stroke-miterlimit:4;stroke-dasharray:none;stroke-dashoffset:0;stroke-opacity:1"
       id="rect5366"
       width="300"
       height="185"
       x="0"
       y="867.36212" />
    <rect
       style="opacity:1;fill:#4d4d4d;fill-opacity:1;stroke:none;stroke-width:10;stroke-linecap:butt;stroke-miterlimit:4;stroke-dasharray:none;stroke-dashoffset:0;stroke-opacity:1"
       id="rect5467"
       width="79.79425"
       height="55.96841"
       x="1043.4935"
       y="860.92279"
       rx="14.688646"
       ry="10.176592"
       transform="matrix(0.8660254,0.5,-0.8660254,0.5,0,0)" />
    <rect
       style="opacity:1;fill:#ffffff;fill-opacity:1;stroke:none;stroke-width:2;stroke-linecap:butt;stroke-miterlimit:4;stroke-dasharray:none;stroke-dashoffset:0;stroke-opacity:1"
       id="rect4739"
       width="73.907974"
       height="70.508797"
       x="130.42776"
       y="844.21094"
       transform="matrix(0.8660254,0.5,0,1,0,0)" />
    <g
       style="font-style:normal;font-weight:normal;font-size:286.66665649px;line-height:125%;font-family:sans-serif;letter-spacing:0px;word-spacing:0px;fill:#00a0dc;fill-opacity:1;stroke:none;stroke-width:1px;stroke-linecap:butt;stroke-linejoin:miter;stroke-opacity:1"
       id="text4730"
       transform="matrix(0.29869552,0.17245194,0,0.34275112,80.097248,683.64035)">
      <path
         style="fill:#00a0dc;fill-opacity:1"
         d="m 132.19867,783.79827 36.95312,0 0,-111.01934 -36.95312,0 0,111.01934 z M 171.55134,638.5453 q -0.15997,-8.31846 -5.75893,-13.75744 -5.59895,-5.43899 -14.87723,-5.43899 -9.27827,0 -15.19717,5.43899 -5.75893,5.43898 -5.75893,13.75744 0,8.15848 5.59896,13.75744 5.75893,5.43898 14.87723,5.43898 l 0.15997,0 q 9.43825,0 15.19717,-5.43898 5.75893,-5.59896 5.75893,-13.75744 z m 93.58259,145.25297 36.95312,0 0,-63.66815 q 0,-24.63542 -11.67782,-37.27307 -11.67783,-12.63765 -30.87426,-12.63765 -21.75595,0 -33.43378,18.71652 l 0.31994,0 0,-16.15699 -36.95312,0 q 0.47991,10.55803 0,111.01934 l 36.95312,0 0,-62.06845 q 0,-6.07887 1.11979,-8.95834 2.39956,-5.59895 7.19866,-9.43824 4.79911,-3.99925 11.8378,-3.99925 18.55655,0 18.55655,25.11532 l 0,59.34896 z M 340,624.14798 340,777.7194 q 0,19.03646 -13.59747,32.47396 -13.4375,13.59747 -32.47396,13.59747 l -153.57142,0 q -19.03646,0 -32.63393,-13.59747 -13.437499,-13.4375 -13.437499,-32.47396 l 0,-153.57142 q 0,-19.03646 13.437499,-32.47396 13.59747,-13.59747 32.63393,-13.59747 l 153.57142,0 q 19.03646,0 32.47396,13.59747 Q 340,605.11152 340,624.14798 Z"
         id="path4735" />
    </g>
  </g>
  <metadata
     id="metadata4169">
    <rdf:RDF>
      <cc:Work
         rdf:about="">
        <dc:title></dc:title>
      </cc:Work>
    </rdf:RDF>
  </metadata>
</svg>
