<svg xmlns="http://www.w3.org/2000/svg" width="29.873" height="30.306"><g transform="translate(-174.807 -287.984)"><rect transform="matrix(.86602 .5 -.86602 .5 0 0)" ry="2.693" rx="3.886" y="192.184" x="409.264" height="14.808" width="21.112" fill="#4d4d4d"/><g font-weight="400" font-size="40" font-family="sans-serif" letter-spacing="0" word-spacing="0"><path d="M194.226 301.78v13.927c0 1.151-.358 1.926-1.075 2.325-.708.413-1.563.33-2.566-.249l-12.137-7.007c-1.003-.579-1.863-1.486-2.58-2.722-.707-1.221-1.061-2.407-1.061-3.558v-13.927c0-1.15.354-1.928 1.062-2.332.716-.408 1.576-.323 2.579.256l12.137 7.007c1.003.58 1.858 1.484 2.566 2.715.717 1.226 1.075 2.415 1.075 3.565z" fill="#026466"/><g style="line-height:125%" fill="#cfdc00"><path d="M183.47 300.634c0-.01-.53-1.39-1.593-4.14-.177-.432-.396-.723-.657-.873l-2.326-1.343c-.152-.088-.262-.098-.33-.03-.058.081-.054.224.014.427l1.58 4.046v.015l-2.478 3.589c-.076.091-.076.227 0 .406a.716.716 0 00.303.364l2.34 1.35c.26.15.471.098.631-.157z" fill="#fff"/><path d="M191.36 297.978a.682.682 0 00-.304-.349l-2.364-1.365c-.253-.146-.46-.096-.62.15l-5.196 7.576 3.312 8.89c.169.436.388.732.658.888l2.326 1.343c.152.087.257.09.316.008.067-.087.063-.225-.013-.413l-3.287-8.804v-.014l5.171-7.503c.068-.116.068-.252 0-.407z"/></g></g></g></svg>